PathFileType	4	(X/Y/Z)	OpenSim_Sub03_CSStiffKnee_Gyro.trc
DataRate	CameraRate	NumFrames	NumMarkers	Units	OrigDataRate	OrigDataStartFrame	OrigNumFrames
100	100	20	8	m	100	2274	3637
Frame#	Time	torso_imu_offset_imu	pelvis_imu_offset_imu	tibia_r_imu_offset_imu	femur_r_imu_offset_imu	tibia_l_imu_offset_imu	femur_l_imu_offset_imu	toes_r_imu_offset_imu	toes_l_imu_offset_imu
				X1	Y1	Z1	X2	Y2	Z2	X3	Y3	Z3	X4	Y4	Z4	X5	Y5	Z5	X6	Y6	Z6	X7	Y7	Z7	X8		Y8	Z8	

2274	22.73000000	0.18146000	0.37939200	-0.18912700	0.32697800	0.01689800	0.09846200	0.01481000	-0.73151300	-0.80951300	-0.20424200	-0.37685900	-0.87829200	-0.49103900	0.17811300	1.77801400	0.15432700	0.43739100	-0.75039300	0.14610300	-0.35104400	0.01771700	0.11498200	-2.98861800	1.18124600
2275	22.74000000	0.19800000	0.36814000	-0.15159100	0.31120600	0.08205200	0.06304300	0.04162000	-0.72566500	-0.74710700	-0.81594000	-0.46724800	-1.15680200	-0.79583600	0.08761600	1.76245000	0.20079700	0.56941600	-0.92169300	0.09598000	-0.22334500	0.05438100	0.20878100	-3.08750600	1.39523600
2276	22.75000000	0.21495900	0.33738400	-0.11848000	0.24451700	0.15711000	0.02400500	-0.11578000	-0.66336500	-0.63975500	-1.04661100	-0.52008800	-1.29595300	-0.95598300	-0.02705000	1.76921100	0.21831300	0.59343200	-0.98647200	-0.01938200	-0.15434000	0.12079100	0.44232200	-2.91748400	1.55232700
2277	22.76000000	0.23419600	0.29381900	-0.09504100	0.14299900	0.19615500	-0.03523000	-0.29066700	-0.57896900	-0.50078700	-0.81979800	-0.48376500	-1.29260600	-0.81475400	-0.06945600	1.71188800	0.10423500	0.44298200	-0.96201400	-0.12149600	-0.14841300	0.17637200	0.95382700	-2.58167600	1.66475500
2278	22.77000000	0.26534800	0.24362100	-0.06585100	0.01769700	0.17577200	-0.07823200	-0.31283500	-0.48506700	-0.42529400	-0.35812200	-0.40930500	-1.26760300	-0.54814100	-0.09587800	1.57177900	-0.10593600	0.30807100	-0.88333600	-0.24060000	-0.15346300	0.26332100	1.09848400	-1.73552000	1.74465800
2279	22.78000000	0.28490100	0.19172200	-0.03342700	-0.10018900	0.12508700	-0.12670100	-0.28263600	-0.44597900	-0.38879700	-0.01826300	-0.32834800	-1.28779100	-0.18004800	-0.10614000	1.35470200	-0.16386100	0.25646500	-0.78382800	-0.35557700	-0.19220700	0.32868000	0.02694400	-0.52006000	1.37255200
2280	22.79000000	0.29053700	0.13998500	-0.00153900	-0.21662600	0.08642600	-0.19105300	-0.16374500	-0.35734200	-0.34514300	0.09200100	-0.27748200	-1.31553700	0.52466400	-0.07832600	0.93977900	-0.17373200	0.23290700	-0.64836300	-0.46390300	-0.18647600	0.39483800	-0.78245800	0.01019100	0.86919900
2281	22.80000000	0.27697400	0.09065500	0.00746100	-0.28187700	0.05109800	-0.25905400	-0.16782500	-0.29758600	-0.31398300	0.02803100	-0.24969800	-1.36298900	1.09941100	0.10265600	0.11743400	-0.16487200	0.16868800	-0.46610800	-0.51285300	-0.17780900	0.42992000	-0.34836600	0.44021300	0.34681600
2282	22.81000000	0.25710200	0.04840400	0.02001000	-0.30968100	0.00274300	-0.33778900	-0.28254000	-0.29638600	-0.27644700	-0.18778200	-0.27622500	-1.43323200	0.98952200	0.27698700	-0.59511700	-0.19857700	0.04777700	-0.28571300	-0.54633700	-0.18326600	0.44289000	-0.28192500	1.28315800	0.01836900
2283	22.82000000	0.24336800	0.02741300	0.01603300	-0.30663400	-0.02432400	-0.38401400	-0.33594800	-0.22375200	-0.23026900	-0.45140500	-0.30466600	-1.47126900	0.33117900	0.00458100	-0.78480600	-0.19688900	0.00264800	-0.21947900	-0.53029100	-0.16157600	0.43015700	-0.39792600	1.77084900	-0.08529800
2284	22.83000000	0.23670700	0.01813100	0.01259300	-0.27539500	-0.04435100	-0.42259000	-0.52204300	-0.22027200	-0.21010700	-0.69404400	-0.31794100	-1.49485000	0.09060500	-0.14298900	-1.16746200	-0.10231800	-0.02021200	-0.28174200	-0.48918400	-0.14246700	0.41255500	-0.48984200	2.17173400	-0.12276300
2285	22.84000000	0.23908900	0.00506300	0.01308700	-0.21234100	-0.05556300	-0.44973300	-0.71927900	-0.24953300	-0.21235700	-0.89876900	-0.30931700	-1.46909900	0.10909900	-0.02314900	-1.67062800	-0.09128000	-0.07279600	-0.34173200	-0.44862600	-0.11880800	0.35789400	-0.40189500	2.50362000	-0.14690700
2286	22.85000000	0.24802100	-0.00006800	0.02366000	-0.15050500	-0.05199300	-0.46543100	-0.72221700	-0.20914600	-0.20776100	-1.06278100	-0.31760300	-1.43468900	0.11369700	-0.02812200	-1.89696100	-0.19083000	-0.13075900	-0.37062300	-0.38831700	-0.10932000	0.29155100	-0.36691200	2.72212700	-0.15062500
2287	22.86000000	0.27188000	-0.00152900	0.02129000	-0.09947900	-0.04346500	-0.45903300	-0.63613400	-0.17762600	-0.18910600	-1.12640900	-0.32353200	-1.38460000	0.06533800	-0.06330900	-1.97197000	-0.34857000	-0.15330700	-0.39568100	-0.32901600	-0.11951100	0.23380000	-0.40852600	2.82718200	-0.15763100
2288	22.87000000	0.29143500	-0.00190800	0.00055300	-0.05374500	-0.01981000	-0.43722400	-0.57386500	-0.18309600	-0.20760300	-1.02414800	-0.28327800	-1.31659800	-0.00519900	-0.02824100	-2.09074700	-0.52005700	-0.14022400	-0.45361500	-0.27591600	-0.12909600	0.16344100	-0.43166200	2.85741200	-0.20765800
2289	22.88000000	0.32834100	-0.00195700	-0.04250900	-0.01763100	0.02331700	-0.40754300	-0.54576700	-0.16582400	-0.26782600	-0.87880700	-0.23954600	-1.24670300	-0.01073400	0.00049700	-2.17834800	-0.65464500	-0.11049800	-0.53164000	-0.28933000	-0.10553900	0.14699000	-0.35673900	2.83221400	-0.27359600
2290	22.89000000	0.36441900	-0.02556600	-0.07177100	0.00387200	0.08545700	-0.35512800	-0.60435400	-0.18800500	-0.32084100	-0.69424100	-0.18888300	-1.15742300	0.01982800	-0.00818300	-2.19407200	-0.75806000	-0.07289900	-0.61453600	-0.28818200	-0.09525000	0.13434500	-0.24309500	2.74409200	-0.34297600
2291	22.90000000	0.38265400	-0.05834200	-0.07673200	0.02476100	0.14708300	-0.30700800	-0.63911800	-0.20710700	-0.37720400	-0.49579800	-0.15313700	-1.04484500	0.03665700	-0.03554300	-2.19243100	-0.82760600	-0.03664400	-0.72582900	-0.25678100	-0.09940500	0.10398700	-0.11222900	2.64886200	-0.39550000
2292	22.91000000	0.40973000	-0.08857200	-0.06229900	0.02394500	0.21275100	-0.26453800	-0.55570100	-0.20793800	-0.41754100	-0.31307700	-0.13003500	-0.98809400	-0.04079200	-0.04987300	-2.18737800	-0.82017000	-0.00725500	-0.85120700	-0.18677700	-0.11567200	0.05545000	-0.03186800	2.57007000	-0.42538700
2293	22.92000000	0.42128300	-0.12121800	-0.03303000	0.02669300	0.24613400	-0.21878600	-0.38069400	-0.20149900	-0.46486300	-0.16577300	-0.11656700	-0.93821200	-0.16455400	-0.05559600	-2.16516400	-0.74799100	0.02511400	-1.00148500	-0.13563700	-0.11984400	0.03229200	-0.01363300	2.46494500	-0.45541600
